<mxfile host="app.diagrams.net" modified="2024-05-31T00:36:49.003Z" agent="Mozilla/5.0 (X11; Ubuntu; Linux x86_64; rv:126.0) Gecko/20100101 Firefox/126.0" version="24.4.10" etag="oxNdGbHFuK-Z38kbap4p" type="github">
  <diagram name="Page-1" id="jJNJFdbvbojXrgVTW3Ek">
    <mxGraphModel>
      <root>
        <mxCell id="0" />
        <mxCell id="1" parent="0" />
      </root>
    </mxGraphModel>
  </diagram>
</mxfile>
